<svg width="1680" height="2760" viewBox="0 0 1680 2760" fill="none" xmlns="http://www.w3.org/2000/svg">
<path fill-rule="evenodd" clip-rule="evenodd" d="M1024.5 128.124C851.32 47.3699 623.449 -3.08816 366.359 2.40722C365.807 2.41902 365.35 1.98111 365.339 1.42914C365.327 0.877159 365.765 0.42013 366.316 0.408335C623.681 -5.09292 851.86 45.4157 1025.34 126.312C1198.79 207.19 1317.71 318.52 1356.28 434.762C1375.57 492.911 1374.75 552.271 1350.59 609.589C1326.44 666.893 1279 722.082 1205.17 771.975C1057.54 871.747 804.235 950.461 419.89 982.581C248.287 996.922 138.816 1046.44 75.1814 1114.2C11.5672 1181.94 -6.38035 1268.07 5.37073 1355.98C17.1243 1443.9 58.5887 1533.55 113.716 1608.16C168.85 1682.77 237.576 1742.24 303.76 1769.9C517.506 1859.23 721.865 1871.19 909.094 1882.15C916.054 1882.56 922.99 1882.96 929.902 1883.37C1122.69 1894.77 1296.88 1908.14 1443.28 2008.92C1606.02 2120.95 1662.53 2285.9 1676.32 2434.1C1688.89 2569.04 1666.05 2690.2 1655.71 2745.02C1654.7 2750.39 1653.81 2755.13 1653.08 2759.18C1652.98 2759.72 1652.46 2760.08 1651.92 2759.98C1651.38 2759.89 1651.01 2759.37 1651.11 2758.82C1651.84 2754.77 1652.74 2750.03 1653.75 2744.65C1664.08 2689.83 1686.87 2568.93 1674.33 2434.28C1660.57 2286.44 1604.23 2122.15 1442.15 2010.57C1296.27 1910.15 1122.66 1896.77 929.784 1885.37C922.848 1884.96 915.888 1884.55 908.904 1884.14C721.717 1873.19 517.055 1861.21 302.989 1771.75C236.373 1743.91 167.382 1684.15 112.109 1609.35C56.8298 1534.54 15.1976 1444.58 3.38951 1356.24C-8.42104 1267.89 9.60491 1181.11 73.7244 1112.83C137.823 1044.57 247.847 994.953 419.723 980.589C803.936 948.48 1056.84 869.809 1204.05 770.318C1277.65 720.58 1324.79 665.669 1348.75 608.812C1372.71 551.971 1373.53 493.112 1354.38 435.392C1316.06 319.899 1197.71 208.895 1024.5 128.124Z" fill="black"/>
</svg>
